{
    "accessors" : [
        {
            "bufferView" : 0, 
            "componentType" : 5123, 
            "count" : 3456, 
            "max" : [
                2303
            ], 
            "min" : [
                0
            ], 
            "type" : "SCALAR"
        }, 
        {
            "bufferView" : 1, 
            "componentType" : 5126, 
            "count" : 2304, 
            "max" : [
                50.0, 
                6.9442033767700195, 
                50.0
            ], 
            "min" : [
                -50.0, 
                -2.059360980987549, 
                -50.0
            ], 
            "type" : "VEC3"
        }, 
        {
            "bufferView" : 2, 
            "componentType" : 5126, 
            "count" : 2304, 
            "max" : [
                0.5565176606178284, 
                0.9999967813491821, 
                0.4870853126049042
            ], 
            "min" : [
                -0.6002994179725647, 
                0.783279538154602, 
                -0.567354679107666
            ], 
            "type" : "VEC3"
        }, 
        {
            "bufferView" : 3, 
            "componentType" : 5126, 
            "count" : 2304, 
            "max" : [
                0.0013749859062954783, 
                0.5674067139625549, 
                1.0, 
                1.0
            ], 
            "min" : [
                -0.001297477982006967, 
                -0.48718246817588806, 
                0.8234376907348633, 
                1.0
            ], 
            "type" : "VEC4"
        }, 
        {
            "bufferView" : 4, 
            "componentType" : 5126, 
            "count" : 2304, 
            "max" : [
                1.0000001192092896, 
                1.0
            ], 
            "min" : [
                0.0, 
                -1.1920928955078125e-07
            ], 
            "type" : "VEC2"
        }, 
        {
            "bufferView" : 5, 
            "componentType" : 5126, 
            "count" : 2304, 
            "max" : [
                1.0, 
                1.0, 
                1.0, 
                1.0
            ], 
            "min" : [
                0.8549019694328308, 
                0.8549019694328308, 
                0.8549019694328308, 
                1.0
            ], 
            "type" : "VEC4"
        }
    ], 
    "asset" : {
        "generator" : "Khronos Blender glTF 2.0 exporter", 
        "version" : "2.0"
    }, 
    "bufferViews" : [
        {
            "buffer" : 0, 
            "byteLength" : 6912, 
            "byteOffset" : 0, 
            "target" : 34963
        }, 
        {
            "buffer" : 0, 
            "byteLength" : 27648, 
            "byteOffset" : 6912, 
            "target" : 34962
        }, 
        {
            "buffer" : 0, 
            "byteLength" : 27648, 
            "byteOffset" : 34560, 
            "target" : 34962
        }, 
        {
            "buffer" : 0, 
            "byteLength" : 36864, 
            "byteOffset" : 62208, 
            "target" : 34962
        }, 
        {
            "buffer" : 0, 
            "byteLength" : 18432, 
            "byteOffset" : 99072, 
            "target" : 34962
        }, 
        {
            "buffer" : 0, 
            "byteLength" : 36864, 
            "byteOffset" : 117504, 
            "target" : 34962
        }
    ], 
    "buffers" : [
        {
            "byteLength" : 154368, 
            "uri" : "hills.bin"
        }
    ], 
    "cameras" : [
        {
            "name" : "Camera", 
            "perspective" : {
                "aspectRatio" : 1.7777777777777777, 
                "yfov" : 0.5033799372418416, 
                "zfar" : 100.0, 
                "znear" : 0.10000000149011612
            }, 
            "type" : "perspective"
        }
    ], 
    "materials" : [
        {
            "name" : "Material.001", 
            "pbrMetallicRoughness" : {
                "baseColorFactor" : [
                    0.800000011920929, 
                    0.800000011920929, 
                    0.800000011920929, 
                    1.0
                ], 
                "metallicFactor" : 0.0
            }
        }
    ], 
    "meshes" : [
        {
            "name" : "Grid.001", 
            "primitives" : [
                {
                    "attributes" : {
                        "COLOR_0" : 5, 
                        "NORMAL" : 2, 
                        "POSITION" : 1, 
                        "TANGENT" : 3, 
                        "TEXCOORD_0" : 4
                    }, 
                    "indices" : 0, 
                    "material" : 0
                }
            ]
        }
    ], 
    "nodes" : [
        {
            "camera" : 0, 
            "name" : "Correction_Camera", 
            "rotation" : [
                -0.7071067690849304, 
                -0.0, 
                0.0, 
                0.7071067690849304
            ]
        }, 
        {
            "children" : [
                0
            ], 
            "name" : "Camera", 
            "rotation" : [
                0.483536034822464, 
                0.33687159419059753, 
                -0.20870360732078552, 
                0.7804827094078064
            ], 
            "translation" : [
                7.481131553649902, 
                5.34366512298584, 
                6.5076398849487305
            ]
        }, 
        {
            "mesh" : 0, 
            "name" : "Grid"
        }
    ], 
    "scene" : 0, 
    "scenes" : [
        {
            "name" : "Scene", 
            "nodes" : [
                2, 
                1
            ]
        }
    ]
}
